<?xml version="1.0" standalone="no"?>
<!DOCTYPE svg PUBLIC "-//W3C//DTD SVG 20010904//EN"
 "http://www.w3.org/TR/2001/REC-SVG-20010904/DTD/svg10.dtd">
<svg version="1.0" xmlns="http://www.w3.org/2000/svg"
 width="1506.000000pt" height="1506.000000pt" viewBox="0 0 1506.000000 1506.000000"
 preserveAspectRatio="xMidYMid meet">
<metadata>
Created by potrace 1.11, written by Peter Selinger 2001-2013
</metadata>
<g transform="translate(0.000000,1506.000000) scale(0.100000,-0.100000)"
fill="#000000" stroke="none">
<path d="M3589 11146 c-2 -2 -40 -6 -84 -10 -44 -3 -91 -8 -105 -11 -14 -2
-45 -7 -70 -10 -25 -3 -54 -7 -65 -9 -11 -2 -38 -7 -60 -11 -33 -6 -265 -59
-300 -69 -5 -1 -30 -8 -55 -15 -106 -29 -326 -111 -455 -170 -272 -124 -582
-322 -815 -521 -128 -110 -361 -347 -445 -455 -16 -21 -34 -43 -40 -49 -46
-53 -195 -267 -263 -378 -88 -144 -274 -525 -286 -588 -1 -3 -11 -30 -23 -60
-33 -83 -111 -344 -128 -430 -2 -8 -10 -50 -19 -92 -9 -42 -18 -94 -22 -115
-3 -21 -7 -49 -9 -62 -2 -13 -7 -45 -11 -70 -3 -25 -8 -57 -10 -71 -25 -160
-25 -713 0 -870 3 -14 7 -47 10 -75 7 -56 8 -66 37 -220 11 -60 24 -124 30
-142 6 -17 12 -43 15 -56 12 -68 99 -338 149 -462 455 -1132 1426 -1954 2580
-2184 55 -11 120 -23 145 -26 25 -4 59 -9 75 -11 201 -33 643 -38 845 -9 50 7
109 15 155 21 32 5 176 34 289 59 96 22 334 100 460 152 118 47 328 149 386
185 19 12 37 22 40 23 26 4 350 227 450 309 118 98 153 130 275 251 178 177
331 362 451 545 27 41 52 77 57 78 4 2 7 8 7 12 0 5 24 48 54 97 52 86 183
347 224 448 52 127 64 159 67 174 2 9 16 50 30 91 46 132 98 334 120 462 3 18
8 40 10 48 2 8 7 35 10 60 3 25 8 52 10 60 2 8 7 44 10 80 4 36 9 79 11 95 14
115 20 511 9 625 -2 19 -6 65 -9 103 -3 37 -8 80 -10 95 -3 15 -10 61 -15 102
-6 41 -13 86 -16 100 -3 14 -10 52 -16 85 -57 322 -216 751 -399 1080 -53 96
-152 253 -188 300 -4 6 -25 35 -46 65 -51 72 -168 216 -230 284 -113 123 -246
253 -345 336 -29 25 -58 50 -65 55 -76 67 -324 239 -451 312 -128 74 -321 168
-465 225 -77 31 -329 115 -365 122 -11 2 -40 9 -65 15 -76 19 -82 21 -190 41
-113 21 -151 27 -232 36 -29 3 -64 8 -78 11 -28 6 -555 14 -561 9z"/>
<path d="M11519 10736 c-2 -2 -47 -6 -100 -10 -53 -4 -107 -9 -120 -11 -13 -2
-46 -6 -74 -10 -83 -10 -173 -25 -249 -41 -39 -9 -82 -18 -96 -20 -134 -26
-366 -99 -540 -171 -733 -301 -1234 -832 -1375 -1459 -27 -117 -28 -151 -8
-157 10 -3 160 -67 333 -142 563 -244 634 -275 637 -271 4 4 6 13 27 136 85
501 336 913 700 1148 80 52 216 121 291 147 28 9 59 21 70 25 21 9 127 39 160
46 30 6 176 33 208 38 53 9 204 18 317 18 706 5 1194 -236 1432 -707 70 -138
119 -301 144 -470 3 -22 7 -51 10 -65 7 -32 18 -520 12 -520 -2 0 -46 -9 -98
-21 -52 -11 -106 -23 -120 -25 -13 -3 -56 -12 -95 -20 -38 -9 -81 -18 -95 -20
-14 -3 -128 -27 -255 -54 -269 -57 -751 -160 -779 -166 -11 -2 -63 -13 -115
-23 -228 -48 -588 -126 -646 -141 -63 -17 -65 -17 -160 -44 -474 -132 -856
-297 -1155 -500 -41 -28 -77 -53 -80 -56 -3 -3 -21 -17 -40 -30 -19 -13 -40
-29 -47 -35 -199 -179 -269 -254 -374 -403 -51 -73 -175 -302 -163 -302 4 0 2
-6 -4 -12 -31 -40 -96 -289 -119 -453 -9 -69 -10 -438 -1 -505 33 -237 99
-462 184 -615 15 -27 34 -63 43 -80 8 -16 19 -34 23 -40 5 -5 36 -50 71 -99
70 -101 218 -255 323 -338 332 -263 760 -423 1269 -475 154 -16 663 -7 695 12
3 2 25 6 50 9 132 18 318 70 490 138 94 37 277 132 368 192 327 213 581 500
760 855 l72 145 0 -632 0 -632 575 0 575 0 1 33 c4 218 -1 4789 -5 4837 -13
135 -17 168 -40 300 -26 151 -96 363 -173 518 -47 94 -170 294 -192 312 -3 3
-28 31 -54 63 -223 265 -558 486 -937 616 -81 28 -236 74 -290 85 -155 34
-152 33 -191 40 -19 3 -44 8 -56 10 -11 3 -43 7 -70 11 -26 4 -58 8 -70 10
-12 2 -57 7 -100 10 -43 4 -87 10 -98 12 -23 6 -651 14 -656 9z m1793 -3734
c-1 -733 -2 -744 -32 -923 -40 -242 -127 -484 -238 -669 -12 -19 -29 -48 -38
-65 -32 -57 -153 -211 -226 -287 -91 -95 -198 -184 -307 -256 -120 -78 -339
-180 -424 -197 -9 -2 -21 -6 -26 -9 -8 -5 -89 -24 -176 -41 -155 -30 -480 -25
-655 10 -14 3 -34 7 -46 9 -383 73 -677 295 -821 622 -77 173 -112 379 -108
629 3 158 7 192 40 325 84 340 306 617 661 826 79 46 144 79 279 139 113 51
284 104 575 179 245 63 785 201 969 247 84 22 214 55 290 75 75 19 145 37 156
40 11 2 43 10 70 18 28 7 52 11 54 10 2 -2 4 -309 3 -682z"/>
</g>
</svg>
